<svg viewBox="0 0 140 140" width="140" height="140" xmlns="http://www.w3.org/2000/svg">
  <ellipse cx="70" cy="14" rx="8" ry="4" fill="none" stroke="#5A4A3A" stroke-width="2"/>
  <g stroke="#5A4A3A" stroke-width="1" fill="none">
    <line x1="63" y1="17" x2="48" y2="56"/><line x1="68" y1="17" x2="60" y2="56"/>
    <line x1="72" y1="17" x2="80" y2="56"/><line x1="77" y1="17" x2="92" y2="56"/>
  </g>
  <g fill="#D4AF37" stroke="#5A4A3A" stroke-width="0.6">
    <circle cx="55" cy="36" r="2"/><circle cx="64" cy="36" r="2"/>
    <circle cx="76" cy="36" r="2"/><circle cx="85" cy="36" r="2"/>
  </g>
  <g fill="none" stroke="#5A4A3A" stroke-width="1.5" opacity="0.35" stroke-linecap="round">
    <path d="M40 56 Q35 46 40 38"/><path d="M100 56 Q105 46 100 38"/>
    <path d="M70 50 Q65 42 70 32"/>
  </g>
  <path d="M42 64 Q70 40 98 64 Z" fill="#D4AF37" stroke="#5A4A3A" stroke-width="1.5"/>
  <path d="M48 60 Q70 50 92 60" fill="none" stroke="#9C7B22" stroke-width="1"/>
  <g fill="#8B1E2D">
    <rect x="69" y="42" width="2" height="6"/><rect x="67" y="44" width="6" height="2"/>
  </g>
  <rect x="42" y="64" width="56" height="4" fill="#9C7B22" stroke="#5A4A3A" stroke-width="1"/>
  <path d="M42 68 L98 68 Q96 100 70 108 Q44 100 42 68 Z" fill="#D4AF37" stroke="#5A4A3A" stroke-width="1.5"/>
  <line x1="46" y1="82" x2="94" y2="82" stroke="#9C7B22" stroke-width="0.8"/>
  <g fill="#8B1E2D">
    <rect x="68.5" y="76" width="3" height="14"/>
    <rect x="63" y="81.5" width="14" height="3"/>
    <circle cx="70" cy="75" r="1.8"/><circle cx="70" cy="91" r="1.8"/>
    <circle cx="61" cy="83" r="1.8"/><circle cx="79" cy="83" r="1.8"/>
  </g>
  <g stroke="#5A4A3A" stroke-width="0.7">
    <line x1="50" y1="106" x2="48" y2="113"/>
    <ellipse cx="48" cy="116" rx="2.5" ry="3" fill="#D4AF37"/>
    <line x1="70" y1="110" x2="70" y2="115"/>
    <ellipse cx="70" cy="118" rx="2.5" ry="3" fill="#D4AF37"/>
    <line x1="90" y1="106" x2="92" y2="113"/>
    <ellipse cx="92" cy="116" rx="2.5" ry="3" fill="#D4AF37"/>
  </g>
</svg>
