<svg viewBox="0 0 140 140" width="140" height="140" xmlns="http://www.w3.org/2000/svg">
  <path d="M48 22 Q70 18 92 22 L92 32 Q70 28 48 32 Z" fill="#8B1E2D" stroke="#5A4A3A" stroke-width="1.5"/>
  <rect x="48" y="32" width="14" height="82" fill="#8B1E2D" stroke="#5A4A3A" stroke-width="1.5"/>
  <rect x="78" y="32" width="14" height="82" fill="#8B1E2D" stroke="#5A4A3A" stroke-width="1.5"/>
  <rect x="48" y="32" width="2" height="78" fill="#D4AF37"/>
  <rect x="60" y="32" width="2" height="78" fill="#D4AF37"/>
  <rect x="78" y="32" width="2" height="78" fill="#D4AF37"/>
  <rect x="90" y="32" width="2" height="78" fill="#D4AF37"/>
  <rect x="48" y="110" width="14" height="4" fill="#D4AF37" stroke="#5A4A3A" stroke-width="0.8"/>
  <rect x="78" y="110" width="14" height="4" fill="#D4AF37" stroke="#5A4A3A" stroke-width="0.8"/>
  <g stroke="#D4AF37" stroke-width="1" stroke-linecap="round">
    <line x1="50" y1="114" x2="50" y2="121"/><line x1="53" y1="114" x2="53" y2="122"/>
    <line x1="56" y1="114" x2="56" y2="120"/><line x1="59" y1="114" x2="59" y2="122"/>
    <line x1="80" y1="114" x2="80" y2="121"/><line x1="83" y1="114" x2="83" y2="122"/>
    <line x1="86" y1="114" x2="86" y2="120"/><line x1="89" y1="114" x2="89" y2="122"/>
  </g>
  <g fill="#D4AF37">
    <rect x="54" y="44" width="2" height="8"/><rect x="51" y="47" width="8" height="2"/>
    <circle cx="55" cy="43" r="0.9"/><circle cx="55" cy="53" r="0.9"/>
    <circle cx="50" cy="48" r="0.9"/><circle cx="60" cy="48" r="0.9"/>
    <rect x="54" y="64" width="2" height="8"/><rect x="51" y="67" width="8" height="2"/>
    <circle cx="55" cy="63" r="0.9"/><circle cx="55" cy="73" r="0.9"/>
    <circle cx="50" cy="68" r="0.9"/><circle cx="60" cy="68" r="0.9"/>
    <rect x="54" y="84" width="2" height="8"/><rect x="51" y="87" width="8" height="2"/>
    <circle cx="55" cy="83" r="0.9"/><circle cx="55" cy="93" r="0.9"/>
    <circle cx="50" cy="88" r="0.9"/><circle cx="60" cy="88" r="0.9"/>
    <rect x="84" y="44" width="2" height="8"/><rect x="81" y="47" width="8" height="2"/>
    <circle cx="85" cy="43" r="0.9"/><circle cx="85" cy="53" r="0.9"/>
    <circle cx="80" cy="48" r="0.9"/><circle cx="90" cy="48" r="0.9"/>
    <rect x="84" y="64" width="2" height="8"/><rect x="81" y="67" width="8" height="2"/>
    <circle cx="85" cy="63" r="0.9"/><circle cx="85" cy="73" r="0.9"/>
    <circle cx="80" cy="68" r="0.9"/><circle cx="90" cy="68" r="0.9"/>
    <rect x="84" y="84" width="2" height="8"/><rect x="81" y="87" width="8" height="2"/>
    <circle cx="85" cy="83" r="0.9"/><circle cx="85" cy="93" r="0.9"/>
    <circle cx="80" cy="88" r="0.9"/><circle cx="90" cy="88" r="0.9"/>
  </g>
</svg>
