<svg viewBox="0 0 140 140" width="140" height="140" xmlns="http://www.w3.org/2000/svg">
  <ellipse cx="70" cy="76" rx="48" ry="44" fill="#9C7B22" opacity="0.3"/>
  <circle cx="70" cy="70" r="48" fill="#F4E8C8" stroke="#5A4A3A" stroke-width="1.5"/>
  <circle cx="70" cy="70" r="38" fill="none" stroke="#5A4A3A" stroke-width="0.8" opacity="0.6"/>
  <circle cx="70" cy="70" r="34" fill="none" stroke="#8B1E2D" stroke-width="0.8" opacity="0.5"/>
  <g fill="#8B1E2D">
    <rect x="66" y="50" width="8" height="40"/>
    <rect x="50" y="66" width="40" height="8"/>
    <circle cx="70" cy="48" r="4"/><circle cx="64" cy="52" r="2.6"/><circle cx="76" cy="52" r="2.6"/>
    <circle cx="70" cy="92" r="4"/><circle cx="64" cy="88" r="2.6"/><circle cx="76" cy="88" r="2.6"/>
    <circle cx="48" cy="70" r="4"/><circle cx="52" cy="64" r="2.6"/><circle cx="52" cy="76" r="2.6"/>
    <circle cx="92" cy="70" r="4"/><circle cx="88" cy="64" r="2.6"/><circle cx="88" cy="76" r="2.6"/>
  </g>
  <circle cx="70" cy="70" r="4" fill="#D4AF37" stroke="#5A4A3A" stroke-width="0.8"/>
  <g fill="#5A4A3A" opacity="0.4">
    <circle cx="42" cy="48" r="0.8"/><circle cx="100" cy="48" r="0.8"/>
    <circle cx="42" cy="92" r="0.8"/><circle cx="100" cy="92" r="0.8"/>
    <circle cx="35" cy="70" r="0.8"/><circle cx="105" cy="70" r="0.8"/>
  </g>
</svg>
