<svg viewBox="0 0 140 140" width="140" height="140" xmlns="http://www.w3.org/2000/svg">
  <rect x="65" y="14" width="10" height="22" fill="#9C7B22" stroke="#5A4A3A" stroke-width="1.5"/>
  <ellipse cx="70" cy="14" rx="6" ry="3" fill="#D4AF37" stroke="#5A4A3A" stroke-width="1.5"/>
  <line x1="63" y1="22" x2="77" y2="22" stroke="#5A4A3A" stroke-width="0.8"/>
  <line x1="63" y1="30" x2="77" y2="30" stroke="#5A4A3A" stroke-width="0.8"/>
  <ellipse cx="70" cy="38" rx="14" ry="4" fill="#9C7B22" stroke="#5A4A3A" stroke-width="1.5"/>
  <path d="M40 42 L100 42 Q102 90 70 102 Q38 90 40 42 Z" fill="#D4AF37" stroke="#5A4A3A" stroke-width="1.5"/>
  <line x1="42" y1="60" x2="98" y2="60" stroke="#9C7B22" stroke-width="1"/>
  <line x1="42" y1="64" x2="98" y2="64" stroke="#9C7B22" stroke-width="1"/>
  <g fill="#8B1E2D">
    <circle cx="50" cy="62" r="1.3"/><circle cx="60" cy="62" r="1.3"/>
    <circle cx="80" cy="62" r="1.3"/><circle cx="90" cy="62" r="1.3"/>
  </g>
  <g fill="#8B1E2D">
    <rect x="68" y="72" width="4" height="20"/>
    <rect x="59" y="80" width="22" height="4"/>
    <circle cx="70" cy="71" r="2.3"/><circle cx="66" cy="73" r="1.5"/><circle cx="74" cy="73" r="1.5"/>
    <circle cx="70" cy="93" r="2.3"/><circle cx="66" cy="91" r="1.5"/><circle cx="74" cy="91" r="1.5"/>
    <circle cx="58" cy="82" r="2.3"/><circle cx="60" cy="78" r="1.5"/><circle cx="60" cy="86" r="1.5"/>
    <circle cx="82" cy="82" r="2.3"/><circle cx="80" cy="78" r="1.5"/><circle cx="80" cy="86" r="1.5"/>
  </g>
  <circle cx="70" cy="82" r="2" fill="#FBF7E8"/>
  <line x1="40" y1="100" x2="100" y2="100" stroke="#9C7B22" stroke-width="1.5"/>
  <line x1="70" y1="102" x2="70" y2="115" stroke="#5A4A3A" stroke-width="1.2"/>
  <circle cx="70" cy="118" r="4" fill="#5A4A3A"/>
</svg>
