<svg viewBox="0 0 140 140" width="140" height="140" xmlns="http://www.w3.org/2000/svg">
  <path d="M52 42 L88 42 L92 58 Q96 90 88 108 L52 108 Q44 90 48 58 Z" fill="#FBF7E8" fill-opacity="0.85" stroke="#5A4A3A" stroke-width="1.5"/>
  <path d="M55 58 L85 58 L87 70 Q89 96 84 105 L56 105 Q51 96 53 70 Z" fill="#8B1E2D"/>
  <ellipse cx="70" cy="58" rx="15" ry="2" fill="#5A1A20"/>
  <path d="M58 65 Q56 85 60 100" fill="none" stroke="#FBF7E8" stroke-width="2" opacity="0.7"/>
  <rect x="62" y="32" width="16" height="12" fill="#D4AF37" stroke="#5A4A3A" stroke-width="1.5"/>
  <rect x="58" y="26" width="24" height="6" fill="#9C7B22" stroke="#5A4A3A" stroke-width="1.5"/>
  <g fill="#8B1E2D">
    <rect x="69" y="14" width="2.5" height="12"/><rect x="65" y="20" width="10" height="2.5"/>
    <circle cx="70.25" cy="13" r="1.4"/><circle cx="70.25" cy="27" r="1.4"/>
    <circle cx="64" cy="21.25" r="1.4"/><circle cx="76.5" cy="21.25" r="1.4"/>
  </g>
  <path d="M52 108 L88 108 L92 116 L48 116 Z" fill="#D4AF37" stroke="#5A4A3A" stroke-width="1.5"/>
  <g fill="#D4AF37">
    <circle cx="62" cy="80" r="1.5"/><circle cx="78" cy="80" r="1.5"/>
  </g>
</svg>
