<svg viewBox="0 0 140 140" width="140" height="140" xmlns="http://www.w3.org/2000/svg">
  <path d="M22 50 Q22 110 70 130 Q118 110 118 50 L100 42 L40 42 Z" fill="#8B1E2D" stroke="#5A4A3A" stroke-width="1.5"/>
  <path d="M55 28 L85 28 L88 42 L52 42 Z" fill="#8B1E2D" stroke="#5A4A3A" stroke-width="1.5"/>
  <path d="M62 30 L78 30 L76 50 L64 50 Z" fill="#9C7B22" stroke="#5A4A3A" stroke-width="1.2"/>
  <path d="M22 50 Q22 110 70 130 Q118 110 118 50" fill="none" stroke="#D4AF37" stroke-width="3"/>
  <path d="M30 56 Q30 104 70 122 Q110 104 110 56" fill="none" stroke="#D4AF37" stroke-width="1" opacity="0.7"/>
  <g fill="#D4AF37">
    <rect x="67" y="62" width="6" height="36"/>
    <rect x="55" y="76" width="30" height="6"/>
    <circle cx="70" cy="60" r="3.5"/><circle cx="65" cy="62" r="2.2"/><circle cx="75" cy="62" r="2.2"/>
    <circle cx="70" cy="100" r="3.5"/><circle cx="65" cy="98" r="2.2"/><circle cx="75" cy="98" r="2.2"/>
    <circle cx="53" cy="79" r="3.5"/><circle cx="55" cy="74" r="2.2"/><circle cx="55" cy="84" r="2.2"/>
    <circle cx="87" cy="79" r="3.5"/><circle cx="85" cy="74" r="2.2"/><circle cx="85" cy="84" r="2.2"/>
  </g>
  <circle cx="70" cy="79" r="3" fill="#FBF7E8"/>
  <circle cx="70" cy="79" r="1.5" fill="#8B1E2D"/>
  <g fill="#D4AF37">
    <circle cx="40" cy="118" r="1.2"/><circle cx="55" cy="124" r="1.2"/>
    <circle cx="70" cy="127" r="1.2"/><circle cx="85" cy="124" r="1.2"/>
    <circle cx="100" cy="118" r="1.2"/>
  </g>
</svg>
