<svg viewBox="0 0 140 140" width="140" height="140" xmlns="http://www.w3.org/2000/svg">
  <ellipse cx="70" cy="78" rx="56" ry="14" fill="#9C7B22" stroke="#5A4A3A" stroke-width="1.5"/>
  <ellipse cx="70" cy="70" rx="56" ry="14" fill="#D4AF37" stroke="#5A4A3A" stroke-width="1.5"/>
  <ellipse cx="70" cy="70" rx="46" ry="11" fill="none" stroke="#9C7B22" stroke-width="1"/>
  <ellipse cx="70" cy="70" rx="36" ry="9" fill="none" stroke="#5A4A3A" stroke-width="0.8" opacity="0.5"/>
  <g fill="none" stroke="#9C7B22" stroke-width="2.5" stroke-linecap="round">
    <path d="M30 70 Q70 18 110 70"/>
  </g>
  <g fill="none" stroke="#D4AF37" stroke-width="1.5" stroke-linecap="round">
    <path d="M30 70 Q70 22 110 70"/>
  </g>
  <circle cx="70" cy="22" r="5" fill="#D4AF37" stroke="#5A4A3A" stroke-width="1.2"/>
  <g fill="#8B1E2D">
    <rect x="69" y="18" width="2" height="8"/><rect x="66" y="21" width="8" height="2"/>
  </g>
  <g fill="#FBF7E8">
    <circle cx="20" cy="70" r="1.2"/><circle cx="120" cy="70" r="1.2"/>
    <circle cx="40" cy="60" r="1"/><circle cx="100" cy="60" r="1"/>
    <circle cx="40" cy="80" r="1"/><circle cx="100" cy="80" r="1"/>
  </g>
  <g fill="#8B1E2D">
    <circle cx="30" cy="70" r="1.5"/><circle cx="110" cy="70" r="1.5"/>
  </g>
</svg>
