<svg viewBox="0 0 140 140" width="140" height="140" xmlns="http://www.w3.org/2000/svg">
  <rect x="14" y="20" width="112" height="4" fill="#5A4A3A"/>
  <circle cx="14" cy="22" r="3" fill="#D4AF37" stroke="#5A4A3A" stroke-width="1"/>
  <circle cx="126" cy="22" r="3" fill="#D4AF37" stroke="#5A4A3A" stroke-width="1"/>
  <path d="M22 24 L118 24 L118 110 Q70 118 22 110 Z" fill="#FBF7E8" stroke="#5A4A3A" stroke-width="1.5"/>
  <rect x="22" y="28" width="96" height="3" fill="#D4AF37"/>
  <path d="M22 100 L118 100 L118 105 Q70 113 22 105 Z" fill="#D4AF37" stroke="#5A4A3A" stroke-width="0.8"/>
  <line x1="28" y1="32" x2="28" y2="98" stroke="#D4AF37" stroke-width="1"/>
  <line x1="112" y1="32" x2="112" y2="98" stroke="#D4AF37" stroke-width="1"/>
  <g fill="#8B1E2D">
    <rect x="67" y="50" width="6" height="36"/>
    <rect x="55" y="64" width="30" height="6"/>
    <circle cx="70" cy="48" r="3.5"/><circle cx="65" cy="50" r="2.2"/><circle cx="75" cy="50" r="2.2"/>
    <circle cx="70" cy="88" r="3.5"/><circle cx="65" cy="86" r="2.2"/><circle cx="75" cy="86" r="2.2"/>
    <circle cx="53" cy="67" r="3.5"/><circle cx="55" cy="62" r="2.2"/><circle cx="55" cy="72" r="2.2"/>
    <circle cx="87" cy="67" r="3.5"/><circle cx="85" cy="62" r="2.2"/><circle cx="85" cy="72" r="2.2"/>
  </g>
  <circle cx="70" cy="67" r="2.8" fill="#D4AF37"/>
  <g fill="#8B1E2D">
    <circle cx="34" cy="40" r="1.2"/><circle cx="106" cy="40" r="1.2"/>
    <circle cx="34" cy="92" r="1.2"/><circle cx="106" cy="92" r="1.2"/>
  </g>
  <g stroke="#D4AF37" stroke-width="1" stroke-linecap="round">
    <line x1="30" y1="108" x2="30" y2="115"/><line x1="40" y1="110" x2="40" y2="117"/>
    <line x1="50" y1="111" x2="50" y2="118"/><line x1="60" y1="112" x2="60" y2="119"/>
    <line x1="70" y1="113" x2="70" y2="120"/><line x1="80" y1="112" x2="80" y2="119"/>
    <line x1="90" y1="111" x2="90" y2="118"/><line x1="100" y1="110" x2="100" y2="117"/>
    <line x1="110" y1="108" x2="110" y2="115"/>
  </g>
</svg>
