<svg viewBox="0 0 140 140" width="140" height="140" xmlns="http://www.w3.org/2000/svg">
  <rect x="14" y="34" width="112" height="72" fill="#8B1E2D" stroke="#5A4A3A" stroke-width="1.5"/>
  <path d="M14 34 L70 28 L126 34 L120 38 L20 38 Z" fill="#9C1F2D" stroke="#5A4A3A" stroke-width="1"/>
  <g stroke="#D4AF37" stroke-width="1" stroke-linecap="round">
    <line x1="16" y1="34" x2="14" y2="40"/><line x1="124" y1="34" x2="126" y2="40"/>
    <line x1="16" y1="106" x2="14" y2="112"/><line x1="124" y1="106" x2="126" y2="112"/>
  </g>
  <rect x="28" y="44" width="84" height="52" fill="#FBF7E8" stroke="#5A4A3A" stroke-width="1.5"/>
  <rect x="32" y="48" width="76" height="44" fill="none" stroke="#D4AF37" stroke-width="2"/>
  <g fill="#8B1E2D">
    <rect x="68" y="55" width="4" height="30"/>
    <rect x="55" y="68" width="30" height="4"/>
    <circle cx="70" cy="53" r="3"/><circle cx="66" cy="55" r="2"/><circle cx="74" cy="55" r="2"/>
    <circle cx="70" cy="87" r="3"/><circle cx="66" cy="85" r="2"/><circle cx="74" cy="85" r="2"/>
    <circle cx="53" cy="70" r="3"/><circle cx="55" cy="66" r="2"/><circle cx="55" cy="74" r="2"/>
    <circle cx="87" cy="70" r="3"/><circle cx="85" cy="66" r="2"/><circle cx="85" cy="74" r="2"/>
  </g>
  <circle cx="70" cy="70" r="2.5" fill="#D4AF37"/>
  <g fill="#D4AF37">
    <circle cx="36" cy="52" r="1.2"/><circle cx="104" cy="52" r="1.2"/>
    <circle cx="36" cy="88" r="1.2"/><circle cx="104" cy="88" r="1.2"/>
  </g>
  <path d="M14 106 L70 112 L126 106 L120 104 L20 104 Z" fill="#7A1825" stroke="#5A4A3A" stroke-width="1"/>
</svg>
