<svg viewBox="0 0 140 140" width="140" height="140" xmlns="http://www.w3.org/2000/svg">
  <rect x="66" y="38" width="8" height="60" fill="#D4AF37" stroke="#5A4A3A" stroke-width="1.5"/>
  <line x1="64" y1="50" x2="76" y2="50" stroke="#9C7B22" stroke-width="1"/>
  <line x1="64" y1="62" x2="76" y2="62" stroke="#9C7B22" stroke-width="1"/>
  <line x1="64" y1="74" x2="76" y2="74" stroke="#9C7B22" stroke-width="1"/>
  <line x1="64" y1="86" x2="76" y2="86" stroke="#9C7B22" stroke-width="1"/>
  <g fill="#8B1E2D">
    <circle cx="70" cy="56" r="1.2"/><circle cx="70" cy="68" r="1.2"/><circle cx="70" cy="80" r="1.2"/>
  </g>
  <g fill="#8B1E2D">
    <rect x="68.5" y="14" width="3" height="22"/>
    <rect x="60" y="22" width="20" height="3"/>
    <circle cx="70" cy="13" r="2.5"/><circle cx="66" cy="14" r="1.6"/><circle cx="74" cy="14" r="1.6"/>
    <circle cx="70" cy="37" r="2.5"/><circle cx="66" cy="35" r="1.6"/><circle cx="74" cy="35" r="1.6"/>
    <circle cx="58" cy="23.5" r="2.5"/><circle cx="60" cy="20" r="1.6"/><circle cx="60" cy="27" r="1.6"/>
    <circle cx="82" cy="23.5" r="2.5"/><circle cx="80" cy="20" r="1.6"/><circle cx="80" cy="27" r="1.6"/>
  </g>
  <circle cx="70" cy="23.5" r="1.8" fill="#D4AF37"/>
  <ellipse cx="70" cy="98" rx="9" ry="3" fill="#9C7B22" stroke="#5A4A3A" stroke-width="1.2"/>
  <ellipse cx="70" cy="115" rx="20" ry="11" fill="#D4AF37" stroke="#5A4A3A" stroke-width="1.5"/>
  <ellipse cx="70" cy="113" rx="16" ry="8" fill="#E8C25A" stroke="#9C7B22" stroke-width="0.8"/>
  <g fill="#8B1E2D">
    <rect x="69" y="109" width="2" height="8"/><rect x="66" y="112" width="8" height="2"/>
  </g>
</svg>
