<svg viewBox="0 0 140 140" width="140" height="140" xmlns="http://www.w3.org/2000/svg">
  <g fill="none" stroke="#5A4A3A" stroke-width="2" opacity="0.45" stroke-linecap="round">
    <path d="M50 80 Q45 60 52 40 Q58 22 50 8"/>
    <path d="M70 78 Q75 58 68 38 Q62 18 70 4"/>
    <path d="M90 80 Q95 60 88 40 Q82 22 90 8"/>
  </g>
  <ellipse cx="70" cy="92" rx="42" ry="9" fill="#9C7B22" stroke="#5A4A3A" stroke-width="1.5"/>
  <path d="M28 92 Q30 118 70 122 Q110 118 112 92 Z" fill="#D4AF37" stroke="#5A4A3A" stroke-width="1.5"/>
  <ellipse cx="70" cy="86" rx="42" ry="9" fill="#5A4A3A" opacity="0.85" stroke="#5A4A3A" stroke-width="1.2"/>
  <g fill="#8B1E2D">
    <circle cx="56" cy="84" r="4"/><circle cx="68" cy="82" r="5"/>
    <circle cx="78" cy="86" r="4"/><circle cx="84" cy="83" r="3"/>
  </g>
  <g fill="#E8C25A" opacity="0.7">
    <circle cx="56" cy="83" r="1.5"/><circle cx="68" cy="81" r="2"/><circle cx="78" cy="85" r="1.5"/>
  </g>
  <line x1="32" y1="102" x2="108" y2="102" stroke="#9C7B22" stroke-width="0.8"/>
  <g fill="#8B1E2D">
    <circle cx="50" cy="106" r="1.2"/><circle cx="70" cy="107" r="1.2"/><circle cx="90" cy="106" r="1.2"/>
  </g>
</svg>
