<svg xmlns="http://www.w3.org/2000/svg" viewBox="0 0 200 120" fill="none">
  <!-- Rows of people (congregation standing) -->
  <!-- Row 1 (front) -->
  <g opacity="0.75">
    <g transform="translate(40, 30)">
      <circle cx="0" cy="0" r="5" fill="#555"/>
      <line x1="0" y1="5" x2="0" y2="22" stroke="#555" stroke-width="2.5" stroke-linecap="round"/>
      <line x1="0" y1="12" x2="-6" y2="18" stroke="#555" stroke-width="2" stroke-linecap="round"/>
      <line x1="0" y1="12" x2="6" y2="18" stroke="#555" stroke-width="2" stroke-linecap="round"/>
      <line x1="0" y1="22" x2="-5" y2="34" stroke="#555" stroke-width="2" stroke-linecap="round"/>
      <line x1="0" y1="22" x2="5" y2="34" stroke="#555" stroke-width="2" stroke-linecap="round"/>
    </g>
    <g transform="translate(70, 28)">
      <circle cx="0" cy="0" r="5" fill="#555"/>
      <line x1="0" y1="5" x2="0" y2="22" stroke="#555" stroke-width="2.5" stroke-linecap="round"/>
      <line x1="0" y1="12" x2="-6" y2="18" stroke="#555" stroke-width="2" stroke-linecap="round"/>
      <line x1="0" y1="12" x2="6" y2="18" stroke="#555" stroke-width="2" stroke-linecap="round"/>
      <line x1="0" y1="22" x2="-5" y2="34" stroke="#555" stroke-width="2" stroke-linecap="round"/>
      <line x1="0" y1="22" x2="5" y2="34" stroke="#555" stroke-width="2" stroke-linecap="round"/>
    </g>
    <g transform="translate(100, 30)">
      <circle cx="0" cy="0" r="5" fill="#555"/>
      <line x1="0" y1="5" x2="0" y2="22" stroke="#555" stroke-width="2.5" stroke-linecap="round"/>
      <line x1="0" y1="12" x2="-6" y2="18" stroke="#555" stroke-width="2" stroke-linecap="round"/>
      <line x1="0" y1="12" x2="6" y2="18" stroke="#555" stroke-width="2" stroke-linecap="round"/>
      <line x1="0" y1="22" x2="-5" y2="34" stroke="#555" stroke-width="2" stroke-linecap="round"/>
      <line x1="0" y1="22" x2="5" y2="34" stroke="#555" stroke-width="2" stroke-linecap="round"/>
    </g>
    <g transform="translate(130, 29)">
      <circle cx="0" cy="0" r="5" fill="#555"/>
      <line x1="0" y1="5" x2="0" y2="22" stroke="#555" stroke-width="2.5" stroke-linecap="round"/>
      <line x1="0" y1="12" x2="-6" y2="18" stroke="#555" stroke-width="2" stroke-linecap="round"/>
      <line x1="0" y1="12" x2="6" y2="18" stroke="#555" stroke-width="2" stroke-linecap="round"/>
      <line x1="0" y1="22" x2="-5" y2="34" stroke="#555" stroke-width="2" stroke-linecap="round"/>
      <line x1="0" y1="22" x2="5" y2="34" stroke="#555" stroke-width="2" stroke-linecap="round"/>
    </g>
    <g transform="translate(160, 30)">
      <circle cx="0" cy="0" r="5" fill="#555"/>
      <line x1="0" y1="5" x2="0" y2="22" stroke="#555" stroke-width="2.5" stroke-linecap="round"/>
      <line x1="0" y1="12" x2="-6" y2="18" stroke="#555" stroke-width="2" stroke-linecap="round"/>
      <line x1="0" y1="12" x2="6" y2="18" stroke="#555" stroke-width="2" stroke-linecap="round"/>
      <line x1="0" y1="22" x2="-5" y2="34" stroke="#555" stroke-width="2" stroke-linecap="round"/>
      <line x1="0" y1="22" x2="5" y2="34" stroke="#555" stroke-width="2" stroke-linecap="round"/>
    </g>
  </g>
  <!-- Row 2 (back, slightly faded) -->
  <g opacity="0.45">
    <g transform="translate(55, 55)">
      <circle cx="0" cy="0" r="5" fill="#777"/>
      <line x1="0" y1="5" x2="0" y2="22" stroke="#777" stroke-width="2.5" stroke-linecap="round"/>
      <line x1="0" y1="12" x2="-6" y2="18" stroke="#777" stroke-width="2" stroke-linecap="round"/>
      <line x1="0" y1="12" x2="6" y2="18" stroke="#777" stroke-width="2" stroke-linecap="round"/>
      <line x1="0" y1="22" x2="-5" y2="34" stroke="#777" stroke-width="2" stroke-linecap="round"/>
      <line x1="0" y1="22" x2="5" y2="34" stroke="#777" stroke-width="2" stroke-linecap="round"/>
    </g>
    <g transform="translate(85, 56)">
      <circle cx="0" cy="0" r="5" fill="#777"/>
      <line x1="0" y1="5" x2="0" y2="22" stroke="#777" stroke-width="2.5" stroke-linecap="round"/>
      <line x1="0" y1="12" x2="-6" y2="18" stroke="#777" stroke-width="2" stroke-linecap="round"/>
      <line x1="0" y1="12" x2="6" y2="18" stroke="#777" stroke-width="2" stroke-linecap="round"/>
      <line x1="0" y1="22" x2="-5" y2="34" stroke="#777" stroke-width="2" stroke-linecap="round"/>
      <line x1="0" y1="22" x2="5" y2="34" stroke="#777" stroke-width="2" stroke-linecap="round"/>
    </g>
    <g transform="translate(115, 55)">
      <circle cx="0" cy="0" r="5" fill="#777"/>
      <line x1="0" y1="5" x2="0" y2="22" stroke="#777" stroke-width="2.5" stroke-linecap="round"/>
      <line x1="0" y1="12" x2="-6" y2="18" stroke="#777" stroke-width="2" stroke-linecap="round"/>
      <line x1="0" y1="12" x2="6" y2="18" stroke="#777" stroke-width="2" stroke-linecap="round"/>
      <line x1="0" y1="22" x2="-5" y2="34" stroke="#777" stroke-width="2" stroke-linecap="round"/>
      <line x1="0" y1="22" x2="5" y2="34" stroke="#777" stroke-width="2" stroke-linecap="round"/>
    </g>
    <g transform="translate(145, 56)">
      <circle cx="0" cy="0" r="5" fill="#777"/>
      <line x1="0" y1="5" x2="0" y2="22" stroke="#777" stroke-width="2.5" stroke-linecap="round"/>
      <line x1="0" y1="12" x2="-6" y2="18" stroke="#777" stroke-width="2" stroke-linecap="round"/>
      <line x1="0" y1="12" x2="6" y2="18" stroke="#777" stroke-width="2" stroke-linecap="round"/>
      <line x1="0" y1="22" x2="-5" y2="34" stroke="#777" stroke-width="2" stroke-linecap="round"/>
      <line x1="0" y1="22" x2="5" y2="34" stroke="#777" stroke-width="2" stroke-linecap="round"/>
    </g>
  </g>
  <!-- Cross at front (facing east) -->
  <g transform="translate(100, 8)">
    <line x1="0" y1="-6" x2="0" y2="10" stroke="#d4a017" stroke-width="2.5" stroke-linecap="round"/>
    <line x1="-5" y1="0" x2="5" y2="0" stroke="#d4a017" stroke-width="2.5" stroke-linecap="round"/>
  </g>
  <!-- Floor line -->
  <line x1="20" y1="110" x2="180" y2="110" stroke="#d4a017" stroke-width="1.5" opacity="0.4"/>
</svg>
